# xmcd
#
# Track frame offsets: 
#        150
#        12072
#        27066
#        45494
#        59847
#        95765
#        128761
#        167543
#        190037
#        204238
#        230360
#        239843
#        252481
#        263134
#        288220
#        317518
#        333061
#
# Disc length: 4670 seconds
#
# Revision: 0
# Processed by: cddbd v1.5.2PL0 Copyright (c) Steve Scherf et al.
# Submitted via: ExactAudioCopy v0.99pb5
#
DISCID=e3123c11
DTITLE=Various Artist - CD 132 (blandat äldre)
DYEAR=1900
DGENRE=70-tal
TTITLE0=Andres Mendoza - La Cucaracha
TTITLE1=Babys Gang - Happy Song
TTITLE2=Djungelboken - Jag vill va' som du
TTITLE3=Garibaldi - Que te La Pongo
TTITLE4=Gonzalez - Haven't Stopped Dancing Yet  (org 12'mix)
TTITLE5=Grandmaster Flash and the Furious Five -  New York, New Yo
TTITLE6=Jacksons - Shake Your Body (org 12'mix)
TTITLE7=Indochine - Kao Bang
TTITLE8=John Denver - Annies Song
TTITLE9=Kool and The Gang - Fresh (org 12'mix)
TTITLE10=Perez Prado - Mambo No 8
TTITLE11=Queen - Flash
TTITLE12=Roberto Seto Y Su Rumberos - Birgitte Bardot (Mono Vers)
TTITLE13=Slade - My oh my (12' version)
TTITLE14=Sylvester - You Make Me Feel (Mighty Real)  (org 12'mix)
TTITLE15=Toydolls - Nellie The Elephant
TTITLE16=Will smith - Gettin jiggy wit it
EXTD=
EXTT0=
EXTT1=
EXTT2=
EXTT3=
EXTT4=
EXTT5=
EXTT6=
EXTT7=
EXTT8=
EXTT9=
EXTT10=
EXTT11=
EXTT12=
EXTT13=
EXTT14=
EXTT15=
EXTT16=
PLAYORDER=
